<?xml version="1.0" standalone="no"?>
<!DOCTYPE svg PUBLIC "-//W3C//DTD SVG 20010904//EN"
 "http://www.w3.org/TR/2001/REC-SVG-20010904/DTD/svg10.dtd">
<svg version="1.0" xmlns="http://www.w3.org/2000/svg"
 width="309.000000pt" height="163.000000pt" viewBox="0 0 309.000000 163.000000"
 preserveAspectRatio="xMidYMid meet">

<g transform="translate(0.000000,163.000000) scale(0.100000,-0.100000)"
fill="#000000" stroke="none">
<path d="M1492 1518 c-82 -9 -195 -46 -189 -62 3 -6 12 -28 21 -48 22 -51 11
-48 -15 5 -12 23 -23 43 -24 45 -2 2 -26 -8 -53 -22 -28 -14 -58 -23 -66 -20
-36 14 -36 -9 0 -74 20 -37 37 -68 39 -70 1 -1 42 18 91 43 116 59 197 79 294
72 92 -6 171 -39 235 -98 38 -35 43 -44 30 -51 -11 -7 -24 -1 -46 22 -17 17
-55 43 -83 58 -44 23 -63 27 -141 27 -77 0 -98 -4 -147 -27 -80 -37 -156 -98
-223 -176 -66 -78 -230 -320 -222 -328 11 -11 69 27 63 42 -3 7 3 18 14 24 26
14 38 12 19 -3 -9 -7 -18 -21 -20 -31 -3 -13 -29 -30 -78 -51 -82 -35 -97 -51
-54 -60 79 -16 107 -29 144 -66 51 -51 51 -79 -1 -234 -40 -119 -47 -159 -32
-169 14 -9 132 77 132 96 0 22 54 60 74 52 8 -3 35 8 61 26 40 27 44 33 34 52
-6 11 -9 28 -6 39 5 20 -2 23 -65 35 -34 6 -54 24 -27 24 5 0 7 5 4 10 -3 6
-1 10 4 10 6 0 11 -4 11 -10 0 -5 4 -10 10 -10 5 0 6 7 3 17 -4 11 -3 14 5 9
7 -4 12 -14 12 -22 0 -19 59 -18 84 1 28 21 82 19 106 -5 32 -32 23 -44 -12
-15 -36 30 -71 28 -101 -7 -25 -30 -19 -73 11 -72 12 0 22 -3 22 -8 0 -4 -7
-8 -15 -8 -26 0 -16 -17 17 -31 17 -7 26 -15 20 -17 -6 -2 -24 4 -40 12 -27
14 -31 13 -73 -15 -26 -18 -52 -28 -64 -25 -21 6 -65 -29 -65 -50 0 -8 -43
-44 -95 -80 -52 -37 -95 -71 -95 -76 0 -10 141 -11 258 -1 59 4 82 10 82 20 0
27 42 102 78 138 40 41 141 93 185 97 28 2 37 16 15 22 -102 29 -100 27 -93
65 7 35 30 71 47 71 4 0 -1 -9 -12 -20 -11 -11 -20 -31 -20 -43 0 -50 70 -76
103 -39 19 20 23 67 7 77 -5 3 -10 11 -10 16 0 6 5 7 11 4 20 -13 50 26 46 59
-3 17 -2 23 0 13 2 -9 9 -14 15 -11 7 4 8 2 4 -4 -7 -11 6 -17 27 -13 5 1 5
-3 2 -9 -4 -6 -10 -9 -13 -6 -3 4 -18 -6 -34 -21 -21 -20 -28 -36 -28 -64 0
-20 -7 -42 -15 -49 -19 -16 -20 -40 -1 -40 8 0 17 -12 20 -26 11 -44 50 -74
96 -74 52 0 76 13 96 52 19 37 12 83 -18 115 -33 35 -15 38 40 7 55 -31 74
-28 96 15 15 29 14 35 -23 141 l-39 111 25 56 c13 31 27 79 30 107 8 70 16 82
68 102 32 12 44 21 40 31 -3 8 -5 18 -5 23 0 5 -20 2 -46 -7 -59 -20 -67 -11
-9 11 50 19 51 24 27 78 l-17 37 -42 -19 c-24 -10 -43 -15 -43 -11 0 4 18 15
41 24 l40 16 -17 28 c-28 45 -115 131 -164 163 -56 35 -178 77 -245 82 -27 2
-79 0 -113 -4z m-72 -43 c0 -3 -15 -12 -32 -20 -27 -12 -28 -14 -8 -11 24 5
24 4 5 -10 -17 -12 -20 -12 -28 2 -5 8 -7 17 -5 18 23 15 68 29 68 21z m510
-269 c0 -5 -7 -1 -15 10 -8 10 -14 24 -14 29 0 6 6 1 14 -9 8 -11 15 -24 15
-30z m-264 14 c38 -15 25 -21 -19 -9 -25 7 -43 7 -55 0 -14 -9 -11 -10 16 -11
30 0 99 -27 90 -35 -1 -2 -66 -32 -143 -68 l-139 -64 -33 40 c-39 46 -37 52
40 92 118 63 183 77 243 55z m169 -40 c8 -13 -5 -13 -25 0 -13 8 -13 10 2 10
9 0 20 -4 23 -10z m-100 -37 c-63 -32 -63 -33 -42 -44 9 -6 16 -20 16 -32 -1
-17 -2 -18 -6 -4 -6 24 -43 22 -43 -3 0 -13 7 -20 20 -20 11 0 20 -4 20 -10 0
-14 -33 -13 -48 2 -7 7 -12 22 -12 35 0 13 -4 23 -9 23 -17 0 -175 -80 -183
-92 -6 -10 -8 -9 -8 3 0 11 50 40 163 92 157 74 233 103 132 50z m188 7 c3
-11 1 -18 -4 -14 -5 3 -9 12 -9 20 0 20 7 17 13 -6z m-515 -178 c-3 -42 -23
-42 -23 1 l0 28 -17 -21 c-14 -17 -15 -26 -7 -42 15 -27 -3 -47 -26 -28 -8 7
-26 10 -40 8 -28 -6 -29 -5 -14 25 10 21 10 21 -5 3 -19 -23 -20 -32 -6 -41
20 -12 -1 -25 -22 -14 -15 8 -27 8 -44 0 -16 -7 -25 -7 -30 0 -3 6 -18 8 -33
5 -24 -6 -25 -5 -8 8 15 11 24 12 43 4 31 -14 74 12 74 47 0 40 19 79 53 107
l32 28 38 -40 c32 -34 38 -46 35 -78z m532 111 c0 -5 -5 -15 -10 -23 -8 -12
-10 -11 -10 8 0 12 5 22 10 22 6 0 10 -3 10 -7z m-20 -48 c0 -3 -18 -13 -40
-22 -24 -11 -40 -24 -40 -35 0 -9 -3 -23 -6 -31 -5 -14 -8 -13 -25 1 -21 18
-25 32 -8 32 5 0 7 -4 4 -10 -3 -5 1 -10 10 -10 9 0 15 7 13 17 -2 11 11 25
37 40 40 23 55 28 55 18z m-393 -139 c4 -8 17 -16 28 -19 13 -3 9 -5 -12 -6
-22 -1 -32 3 -30 12 1 6 -4 11 -10 10 -7 -2 -13 2 -13 7 0 15 28 12 37 -4z
m-131 -7 c3 -6 16 -8 28 -5 28 7 69 -34 55 -55 -7 -12 -12 -12 -29 -1 -17 11
-21 10 -27 -5 -8 -22 -28 -43 -40 -43 -5 0 -9 27 -8 60 0 58 6 72 21 49z m-83
-41 c-5 -23 -3 -29 6 -23 7 4 5 -5 -5 -21 -18 -27 -18 -28 -1 -21 10 4 28 2
39 -4 20 -11 20 -12 3 -21 -11 -7 -13 -13 -7 -17 7 -4 8 -12 2 -21 -8 -12 -10
-12 -10 -1 0 9 -4 10 -12 3 -7 -5 -24 -9 -38 -8 -14 1 -30 -2 -36 -6 -16 -12
-34 14 -27 40 6 26 20 29 26 5 4 -17 4 -17 12 0 5 13 0 26 -19 46 -24 25 -25
29 -11 47 14 17 16 17 28 3 11 -14 14 -14 32 7 11 13 21 24 22 24 1 0 0 -14
-4 -32z m304 16 c-3 -3 -12 -4 -19 -1 -8 3 -5 6 6 6 11 1 17 -2 13 -5z m118
-5 c4 -6 17 -14 29 -19 19 -8 18 -9 -6 -7 -17 1 -28 7 -28 15 0 9 -6 12 -16 8
-8 -3 -12 -2 -9 4 8 13 22 13 30 -1z m-68 -5 c-3 -3 -12 -4 -19 -1 -8 3 -5 6
6 6 11 1 17 -2 13 -5z m-166 -45 c-12 -19 -21 -30 -21 -26 0 14 31 69 36 64 3
-3 -4 -20 -15 -38z m73 6 c8 -30 40 -34 68 -8 10 9 18 11 18 5 0 -6 -12 -19
-26 -29 -29 -18 -49 -12 -68 23 -6 10 -15 22 -21 26 -6 5 -3 8 6 8 10 0 20
-11 23 -25z m-109 -15 c-3 -5 -14 -10 -23 -10 -15 0 -15 2 -2 10 20 13 33 13
25 0z m272 -21 c-4 -14 2 -27 19 -42 13 -11 24 -25 24 -30 0 -6 -8 -3 -17 5
-10 9 -25 18 -34 19 -12 3 -14 10 -7 37 5 17 11 32 14 32 4 0 4 -9 1 -21z m68
-61 c12 -30 12 -35 -6 -54 -10 -11 -19 -23 -19 -26 0 -11 148 -108 167 -109
15 -1 16 -2 1 -6 -16 -4 -188 103 -188 117 0 3 9 16 20 28 24 26 25 45 4 66
-9 9 -11 16 -4 16 6 0 17 -15 25 -32z m-363 -46 c25 2 34 9 39 28 8 29 10 22
12 -39 2 -46 22 -67 34 -35 4 10 0 22 -11 30 -13 9 -15 17 -8 31 5 10 7 25 5
33 -3 9 3 7 14 -6 32 -36 75 -39 128 -9 25 15 45 24 45 21 0 -3 -13 -12 -29
-20 -16 -9 -32 -27 -35 -41 -4 -14 -14 -25 -24 -25 -9 0 -27 -3 -39 -6 -17 -5
-23 -2 -23 9 0 9 -5 19 -10 22 -7 4 -9 -2 -5 -17 4 -16 1 -29 -9 -37 -19 -16
-34 -7 -47 26 -7 18 -15 24 -29 20 -26 -7 -70 29 -70 56 1 18 4 15 15 -11 13
-29 19 -33 47 -30z m-107 23 c15 0 20 -7 20 -27 1 -34 -3 -35 -16 -5 -8 20 -9
19 -4 -6 4 -21 2 -28 -7 -24 -7 2 -23 0 -35 -4 -23 -9 -44 8 -25 20 6 3 14 18
17 34 5 17 11 24 19 20 6 -4 20 -8 31 -8z m-74 -4 c7 11 9 9 9 -8 0 -18 -6
-23 -25 -23 -19 0 -25 5 -25 21 0 18 2 20 16 8 13 -10 17 -10 25 2z m678 -84
c-1 -21 -3 -25 -6 -12 -8 33 -25 48 -34 33 -7 -10 -9 -9 -9 3 0 23 10 30 31
18 13 -7 19 -20 18 -42z m-689 27 c0 -8 -4 -12 -10 -9 -5 3 -10 10 -10 16 0 5
5 9 10 9 6 0 10 -7 10 -16z m40 -94 c8 -15 6 -21 -9 -29 -23 -13 -47 10 -37
34 8 21 33 19 46 -5z m407 -2 c-3 -8 -6 -5 -6 6 -1 11 2 17 5 13 3 -3 4 -12 1
-19z m-277 8 c0 -2 -8 -10 -17 -17 -16 -13 -17 -12 -4 4 13 16 21 21 21 13z
m261 -49 c-10 -9 -11 -8 -5 6 3 10 9 15 12 12 3 -3 0 -11 -7 -18z m22 -21 c-3
-18 0 -44 6 -57 12 -23 11 -23 -3 -5 -17 21 -20 53 -10 80 10 26 13 18 7 -18z
m-394 11 c-23 -20 -160 -106 -149 -94 20 22 144 105 149 101 2 -2 2 -6 0 -7z
m-49 -148 c0 -6 -4 -7 -10 -4 -5 3 -10 11 -10 16 0 6 5 7 10 4 6 -3 10 -11 10
-16z"/>
<path d="M1473 1168 c-28 -13 -29 -21 -5 -39 9 -7 14 -9 9 -4 -4 4 0 19 8 32
9 13 14 23 13 22 -2 0 -13 -5 -25 -11z"/>
<path d="M1490 1100 c0 -5 5 -10 11 -10 5 0 7 5 4 10 -3 6 -8 10 -11 10 -2 0
-4 -4 -4 -10z"/>
<path d="M1346 1031 c-4 -7 -5 -15 -2 -18 9 -9 19 4 14 18 -4 11 -6 11 -12 0z"/>
<path d="M1296 665 c-3 -8 -1 -15 4 -15 13 0 22 18 11 24 -5 3 -11 -1 -15 -9z"/>
<path d="M1483 245 c0 -27 2 -40 4 -27 l4 22 30 -21 c17 -12 33 -19 36 -16 3
3 -4 12 -16 19 -27 16 -26 25 2 50 20 18 19 18 -15 -1 l-37 -22 -4 23 c-2 13
-4 1 -4 -27z"/>
<path d="M1586 274 c-35 -34 -12 -74 41 -74 26 0 36 6 45 26 11 23 10 29 -11
45 -28 23 -54 24 -75 3z m72 -31 c3 -17 -3 -24 -22 -29 -33 -8 -46 1 -46 32 0
22 4 25 33 22 24 -2 33 -8 35 -25z"/>
<path d="M1783 245 c0 -27 2 -38 4 -22 2 15 2 37 0 50 -2 12 -4 0 -4 -28z"/>
<path d="M1810 245 c0 -25 5 -45 10 -45 6 0 10 16 10 35 0 27 4 35 18 35 15 0
17 -6 14 -35 -3 -21 0 -35 7 -35 6 0 11 16 11 36 0 49 32 44 41 -6 l6 -35 2
41 c1 39 -1 42 -30 48 -17 3 -44 6 -60 6 -28 0 -29 -2 -29 -45z"/>
<path d="M1950 280 c0 -5 16 -10 35 -10 44 0 46 -18 3 -22 -25 -2 -33 -8 -33
-23 0 -16 8 -21 43 -23 l42 -3 0 35 c0 25 -6 38 -19 46 -25 13 -71 13 -71 0z
m70 -55 c0 -9 -9 -15 -25 -15 -16 0 -25 6 -25 15 0 9 9 15 25 15 16 0 25 -6
25 -15z"/>
<path d="M1738 248 c-2 -24 -9 -34 -28 -40 -21 -6 -19 -7 10 -5 33 2 35 4 38
40 2 20 -1 37 -7 37 -5 0 -11 -14 -13 -32z"/>
<path d="M1307 164 c-11 -11 -8 -64 3 -64 6 0 10 5 10 10 0 6 12 10 26 10 21
0 25 4 22 23 -2 15 -11 23 -28 25 -14 2 -29 0 -33 -4z m51 -21 c2 -8 -5 -13
-17 -13 -21 0 -35 13 -24 24 10 10 36 3 41 -11z"/>
<path d="M1391 133 c0 -21 3 -32 6 -25 6 14 43 16 43 2 0 -5 4 -10 9 -10 4 0
8 15 7 33 -1 29 -4 32 -33 35 -32 3 -33 2 -32 -35z m57 10 c2 -8 -6 -13 -22
-13 -25 0 -33 10 -19 24 10 10 36 3 41 -11z"/>
<path d="M1492 161 c-8 -4 -12 -19 -10 -32 2 -20 9 -24 38 -24 25 0 36 5 38
18 7 36 -33 59 -66 38z m47 -10 c21 -13 5 -41 -24 -41 -38 0 -33 44 5 49 3 0
11 -3 19 -8z"/>
<path d="M1578 135 c-4 -34 -3 -35 33 -35 41 0 56 19 39 51 -7 12 -21 19 -39
19 -25 0 -29 -4 -33 -35z m60 -2 c3 -19 -1 -23 -22 -23 -21 0 -26 5 -26 26 0
21 4 25 23 22 14 -2 23 -11 25 -25z"/>
<path d="M1672 139 c-2 -35 0 -37 33 -41 l35 -4 -2 41 c-1 36 -2 37 -5 8 -4
-27 -9 -33 -28 -33 -19 0 -24 6 -28 33 l-4 32 -1 -36z"/>
<path d="M1773 163 c-7 -2 -13 -18 -13 -34 0 -26 3 -29 33 -28 30 2 30 2 5 6
-19 3 -28 10 -28 23 0 11 11 22 28 28 20 8 22 10 7 10 -11 0 -26 -2 -32 -5z"/>
<path d="M1852 158 c9 -7 19 -24 21 -38 4 -25 4 -25 6 2 0 15 9 32 19 37 14 8
9 10 -22 11 -34 0 -37 -2 -24 -12z"/>
<path d="M1933 135 c0 -22 2 -30 4 -17 2 12 2 30 0 40 -3 9 -5 -1 -4 -23z"/>
<path d="M1960 151 c-17 -33 -2 -52 39 -49 26 2 37 8 40 22 7 40 -60 62 -79
27z m50 -1 c25 -14 15 -40 -16 -40 -17 0 -24 6 -24 18 0 31 11 37 40 22z"/>
<path d="M2050 135 c0 -19 4 -35 9 -35 6 0 9 12 8 27 -2 21 2 28 18 28 14 0
21 -8 23 -27 4 -34 22 -37 22 -5 0 31 -18 47 -52 47 -25 0 -28 -3 -28 -35z"/>
<path d="M2153 163 c-23 -9 -14 -33 11 -33 38 0 41 -18 4 -23 -32 -4 -32 -4 5
-5 32 -2 38 1 35 15 -2 11 -16 20 -33 24 -30 6 -24 12 20 22 16 4 15 5 -5 5
-14 0 -31 -2 -37 -5z"/>
</g>
</svg>
