<?xml version="1.0" standalone="no"?>
<!DOCTYPE svg PUBLIC "-//W3C//DTD SVG 20010904//EN"
 "http://www.w3.org/TR/2001/REC-SVG-20010904/DTD/svg10.dtd">
<svg version="1.0" xmlns="http://www.w3.org/2000/svg"
 width="480.000000pt" height="180.000000pt" viewBox="0 0 480.000000 180.000000"
 preserveAspectRatio="xMidYMid meet">

<g transform="translate(0.000000,180.000000) scale(0.100000,-0.100000)"
fill="#000000" stroke="none">
<path d="M855 1391 c-3 -5 2 -11 10 -15 8 -3 17 -1 20 3 3 5 -2 11 -10 15 -8
3 -17 1 -20 -3z"/>
<path d="M990 1362 c0 -41 25 -67 36 -38 10 27 -1 71 -18 74 -15 3 -18 -4 -18
-36z"/>
<path d="M1130 1392 c0 -12 19 -26 26 -19 2 2 -2 10 -11 17 -9 8 -15 8 -15 2z"/>
<path d="M780 1374 c0 -9 7 -14 17 -12 25 5 28 28 4 28 -12 0 -21 -6 -21 -16z"/>
<path d="M928 1383 c6 -2 18 -2 25 0 6 3 1 5 -13 5 -14 0 -19 -2 -12 -5z"/>
<path d="M1060 1326 c0 -37 4 -56 14 -59 8 -3 17 -3 20 0 10 10 7 73 -4 94
-19 34 -30 20 -30 -35z"/>
<path d="M512 1347 c-14 -15 -22 -36 -22 -58 l1 -34 30 34 c21 22 27 36 20 41
-7 3 -9 14 -5 23 8 23 1 21 -24 -6z"/>
<path d="M709 1368 c-4 -7 -5 -88 -1 -88 2 0 12 5 23 10 24 14 26 41 2 34 -17
-5 -17 -5 0 6 23 15 22 40 -3 40 -11 0 -21 -1 -21 -2z"/>
<path d="M653 1338 c-19 -9 -23 -19 -23 -56 0 -36 3 -43 16 -38 9 3 19 6 24 6
4 0 8 23 8 50 1 28 0 50 -1 49 -1 0 -12 -5 -24 -11z"/>
<path d="M1130 1297 c0 -36 5 -59 15 -67 13 -11 15 -5 15 43 0 36 -5 59 -15
67 -13 11 -15 5 -15 -43z"/>
<path d="M582 1294 c-19 -13 -22 -24 -22 -75 l0 -61 24 29 c30 35 40 71 29
101 -8 21 -10 21 -31 6z"/>
<path d="M441 1271 c-20 -28 -21 -42 -21 -356 0 -314 1 -328 21 -356 11 -16
25 -29 30 -29 15 0 10 248 -6 315 -17 69 -19 107 -6 87 14 -22 21 50 21 216 0
87 -4 152 -9 152 -5 0 -19 -13 -30 -29z"/>
<path d="M512 1261 c-21 -29 -22 -40 -22 -215 0 -182 0 -185 25 -213 l25 -28
-20 40 c-11 22 -16 41 -11 43 5 2 6 32 3 67 -4 52 -1 71 17 105 16 32 21 58
20 118 0 42 -4 85 -7 95 -7 16 -10 14 -30 -12z"/>
<path d="M1200 1227 c0 -45 4 -68 15 -77 13 -11 15 -4 15 53 0 45 -4 68 -15
77 -13 11 -15 4 -15 -53z"/>
<path d="M375 1170 c-24 -48 -25 -56 -25 -239 0 -169 2 -195 21 -245 12 -31
26 -56 30 -56 5 0 9 133 9 295 0 162 -2 295 -5 295 -2 0 -16 -22 -30 -50z"/>
<path d="M1270 927 c0 -227 3 -288 13 -285 9 4 13 68 15 269 2 222 0 268 -13
284 -13 18 -14 -11 -15 -268z"/>
<path d="M2842 1195 c-52 -12 -65 -19 -115 -64 -66 -59 -93 -169 -63 -257 45
-138 188 -206 328 -158 47 15 87 49 74 61 -3 4 -24 -3 -45 -15 -153 -86 -334
19 -336 194 0 50 5 69 30 109 61 99 186 132 294 79 35 -18 56 -23 63 -16 6 6
0 16 -19 29 -58 40 -136 54 -211 38z"/>
<path d="M3432 961 c2 -182 6 -245 15 -248 10 -4 13 43 15 199 l3 203 99 -117
c55 -65 102 -118 105 -118 3 1 49 52 101 116 l95 114 5 -197 c4 -144 8 -197
18 -201 9 -3 12 49 12 238 0 133 -4 239 -8 236 -5 -3 -55 -62 -112 -131 -57
-69 -107 -125 -112 -125 -4 0 -55 57 -114 128 -59 70 -111 131 -116 137 -5 5
-7 -100 -6 -234z"/>
<path d="M1730 1176 c0 -13 15 -16 93 -16 115 0 158 -12 207 -56 92 -84 91
-228 -3 -311 -47 -42 -91 -53 -205 -53 -71 0 -93 -3 -89 -12 3 -10 34 -13 113
-13 92 1 115 4 150 22 167 89 178 320 20 418 -46 28 -56 30 -168 33 -102 3
-118 2 -118 -12z"/>
<path d="M2255 1178 c-3 -8 -4 -115 -3 -238 l3 -225 148 0 c187 0 202 19 17
23 l-130 3 0 104 0 105 100 0 c82 0 100 3 100 15 0 12 -18 15 -99 15 l-99 0
-4 78 c-3 42 -3 82 0 89 3 9 42 13 130 15 177 4 166 22 -16 26 -110 2 -144 0
-147 -10z"/>
<path d="M3235 1178 c-3 -7 -4 -115 -3 -238 3 -192 5 -225 18 -225 13 0 15 33
15 234 0 179 -3 235 -12 238 -7 3 -15 -1 -18 -9z"/>
<path d="M4137 959 c-59 -127 -107 -235 -107 -240 0 -5 6 -9 13 -9 8 0 31 38
52 85 l38 85 117 0 117 0 37 -80 c39 -82 49 -95 65 -85 5 3 -10 45 -33 93 -23
48 -73 153 -111 235 -38 81 -71 147 -74 147 -4 0 -55 -104 -114 -231z m163 64
c25 -53 47 -100 48 -105 4 -9 -181 -11 -190 -2 -6 6 83 204 92 204 3 0 26 -44
50 -97z"/>
<path d="M1340 1174 c0 -5 7 -29 14 -54 l15 -45 0 41 c1 25 -5 46 -14 54 -8 7
-15 9 -15 4z"/>
<path d="M310 1022 c-10 -56 -11 -87 -1 -143 21 -127 30 -114 31 41 0 169 -12
207 -30 102z"/>
<path d="M1340 918 c0 -123 3 -177 11 -180 9 -3 9 -10 0 -26 -7 -13 -11 -37
-9 -55 l4 -32 12 28 c19 44 16 376 -3 413 -14 27 -15 15 -15 -148z"/>
<path d="M1411 930 c0 -84 4 -127 9 -115 5 11 9 63 9 115 0 52 -4 104 -9 115
-5 12 -9 -31 -9 -115z"/>
<path d="M862 878 c-7 -7 -12 -17 -12 -23 0 -6 -9 -27 -20 -48 -18 -33 -21
-55 -19 -150 1 -62 -2 -125 -6 -141 -7 -26 -6 -28 14 -21 18 5 21 2 21 -23 0
-17 -6 -33 -12 -35 -10 -4 -10 -8 1 -15 11 -8 13 -28 7 -99 -5 -64 -3 -100 7
-128 14 -39 14 -39 26 -17 7 13 18 21 25 19 8 -3 20 10 31 31 15 32 18 75 20
315 2 152 0 277 -5 277 -4 0 -17 16 -29 35 -22 38 -30 42 -49 23z"/>
<path d="M1215 763 c-4 -10 -9 -42 -11 -72 -4 -41 -2 -52 8 -49 9 3 14 27 16
71 3 68 0 81 -13 50z"/>
<path d="M492 645 l3 -130 28 -3 27 -3 0 103 c0 103 0 105 -30 133 l-31 29 3
-129z"/>
<path d="M560 606 c0 -106 0 -107 23 -104 21 3 22 7 22 92 0 81 -2 90 -22 104
l-23 14 0 -106z"/>
<path d="M630 591 c0 -61 13 -80 25 -40 8 25 -2 86 -15 94 -6 4 -10 -18 -10
-54z"/>
<path d="M1281 592 c-14 -26 -7 -42 10 -25 6 6 9 19 7 29 -3 17 -5 17 -17 -4z"/>
</g>
</svg>
