<?xml version="1.0" encoding="utf-8"?>
<!-- Generator: Adobe Illustrator 19.0.0, SVG Export Plug-In . SVG Version: 6.00 Build 0)  -->
<svg version="1.1" id="Layer_1" xmlns="http://www.w3.org/2000/svg" xmlns:xlink="http://www.w3.org/1999/xlink" x="0px" y="0px"
	 viewBox="0 0 500 500" style="enable-background:new 0 0 500 500;" xml:space="preserve">
<g id="XMLID_1_">
	<path id="XMLID_5_" d="M67.5,200.4l350.9,0.3v99.2c0,0-233.9,0-350.9,0C67.5,267,67.5,200.4,67.5,200.4z M77.6,211.1v78.7
		c0,0,220.4,0,330.7,0c0-26.2,0-52.4,0-78.7C298.1,211.1,77.6,211.1,77.6,211.1"/>
	<path id="XMLID_8_" d="M177.6,221.2h15.7l16.6,58.4h-11.8l-3.9-14.6h-17.4c0,0-3,11.7-3.7,14.3c-3.5,0.3-12.1,0-12.1,0L177.6,221.2
		L177.6,221.2z M185.2,231.1l-6.2,24.7H192L185.2,231.1"/>
	<path id="XMLID_9_" d="M358.5,221.2c0,0,16.1,0,24.2,0c0,2.5,0,7.6,0,7.6H367c0,0,0,5.6,0,8.4c4.8,0,9.6,0,14.3,0
		c0,2.5,0,5.1,0,7.6c-4.8,0-9.6,0-14.3,0c0,2.9,0,5.8,0,8.7c5.3,0,15.7,0,15.7,0v7.6h-24.4L358.5,221.2"/>
	<polyline id="XMLID_10_" points="288.3,221.2 300.1,221.2 311.4,264.8 322.3,221.2 334.1,221.2 316.4,279.7 306,279.7 288.3,221.2 
			"/>
	<path id="XMLID_11_" d="M238.6,221.2c3.7,0,7.5,0,11.2,0c0,16.2,0,32.4,0,48.6c8.1,0,16.3,0,24.4,0c0,3.3,0,6.5,0,9.8
		c-12,0-24,0-35.9,0C238.3,260.3,237.8,240,238.6,221.2"/>
	<polyline id="XMLID_12_" points="98.1,221.2 109.7,221.2 120.9,265.3 131.8,221.2 143.9,221.2 126.2,279.7 115.5,279.7 98.1,221.2 
			"/>
	<path id="XMLID_17_" d="M426.8,200.1c3.2,0,5.7,2.6,5.7,5.8c0,3.3-2.5,5.9-5.8,5.9c-3.2,0-5.8-2.6-5.8-5.9
		C421,202.7,423.6,200.1,426.8,200.1L426.8,200.1L426.8,200.1z M426.7,201c-2.6,0-4.7,2.2-4.7,4.9c0,2.8,2.1,4.9,4.7,4.9
		c2.6,0,4.6-2.1,4.6-4.9C431.4,203.2,429.3,201,426.7,201L426.7,201L426.7,201z M425.6,209.3h-1v-6.5c0.5-0.1,1-0.2,1.8-0.2
		c1,0,1.6,0.2,2,0.5c0.4,0.3,0.6,0.7,0.6,1.3c0,0.9-0.6,1.4-1.3,1.6v0c0.6,0.1,1,0.6,1.1,1.6c0.1,1,0.3,1.4,0.4,1.6h-1.1
		c-0.1-0.2-0.3-0.8-0.4-1.6c-0.1-0.8-0.6-1.1-1.4-1.1h-0.7L425.6,209.3L425.6,209.3z M425.6,205.7h0.8c0.8,0,1.6-0.3,1.6-1.1
		c0-0.6-0.4-1.1-1.6-1.1c-0.3,0-0.6,0-0.8,0.1V205.7"/>
</g>
</svg>
