<svg xmlns="http://www.w3.org/2000/svg" viewBox="0 0 106.95 106.95">
<defs><style>.a{fill:#000;}</style></defs>
<path class="a" d="M94.15,48.62a40.53,40.53,0,1,0-69.94,27.9l2.52-2.08A40.09,40.09,0,0,0,30.46,71c1.48-1.67,5.82-1.75,5.82-1.75l.12-.19h0a2.56,2.56,0,0,0,.32-.5l.08-.14,0,.08h0a21.67,21.67,0,0,0,1.1-3.31A6.8,6.8,0,0,1,38.77,63a2.63,2.63,0,0,0,1.06-.09c1.74-1.5,1.94-7.63,1.94-7.63L40,55.9l-.65-.1L39.5,54l-.93-.95a19.41,19.41,0,0,0,.5-4.17c0-1.92-.8-5.67-.84-6.93s.12-6.82.24-8.74a12.22,12.22,0,0,1,1.32-4.85,14,14,0,0,0,1.05-2.75l-1.43,1.59s-.73,1.86-1.21,3.22a23.1,23.1,0,0,0-1,5.23c-.14,1.76-.62,4-.75,5.05s.06,5.68,0,6.58a3.85,3.85,0,0,1-1.06,1.89l-1.83.45a5.39,5.39,0,0,1-1.76-.74,11.19,11.19,0,0,1-1-1.94c-.47-1-.9-5.27-1.07-6.49-.2-1.47-.27-3.58-.27-3.58l-.85.63a69.6,69.6,0,0,0,.22,9.76,20.79,20.79,0,0,0,1.47,5.79,11.9,11.9,0,0,1,.93,4.3,48.25,48.25,0,0,1,.1,5.51,31.11,31.11,0,0,1,25-49.64,39.61,39.61,0,0,1,9.4,1.27C81.56,19,92.62,34.87,92.61,51a43.22,43.22,0,0,1-4.47,18.9A40.42,40.42,0,0,0,94.15,48.62Z"/>
<path class="a" d="M63.92,74.11c-1.74.83-3.17,1.53-5.93,2.76s-8,2-9.91,2.37a17.41,17.41,0,0,0-6.25,2.62,32.57,32.57,0,0,0-4.11,4.08c2.11.89,3.43,1.29,3.43,1.29a20.82,20.82,0,0,1,2-2.48c1-1,2.84-3,10.13-5.12,3.86-1.15,9.34-4.44,10.83-5.16.92-.43,4.63-1.82,5.51-2.15s4.23-1.54,5.23-1.91a12.21,12.21,0,0,0,2-1.08,3,3,0,0,1,1.38-.5l.1-.2c-1.21-.09-2.38,1-3.6,1.47C73.3,70.63,66,73.12,63.92,74.11Z"/>
<path class="a" d="M31.73,39.36a7,7,0,0,0-1.33-2.07,12.69,12.69,0,0,1,.85,2.22c.27,1.16.62,3.73.68,4.19S33,47.78,33,47.78l1.16.65a22,22,0,0,1-.88-2.29,28.54,28.54,0,0,1-.71-3A18.81,18.81,0,0,0,31.73,39.36Z"/>
<path class="a" d="M41.19,33.82c-.25,1.62-.2,6.77-.19,7.89A11.6,11.6,0,0,0,41.28,44l1.37-.54s0-2.07,0-3.32-.24-3.25-.19-4.35.46-8.29.46-8.29l-.7-1.34-.11-.06.17,1s-.19,2.34-.35,3.66S41.44,32.2,41.19,33.82Z"/>
<path class="a" d="M51.72,25.8c-.55,1.2-1.66,4.9-2.57,7.49a81.58,81.58,0,0,0-2.1,9,6.91,6.91,0,0,1-.95,2.55,6,6,0,0,1-.63,1l.68,1.24,1.17-.75a9.46,9.46,0,0,0,1-2c.84-1.84,1.26-5.32,1.9-8.91a88.18,88.18,0,0,1,2.62-10.83C53.69,22.2,54,20.73,54,20.73L53,22.31S52.26,24.59,51.72,25.8Z"/>
<path class="a" d="M56.38,20.17s-.23,2.21-.49,4.07-1.17,4.12-1.85,7a65.47,65.47,0,0,0-1,10.1,25.34,25.34,0,0,0,.13,3.89l1,1.08L53.88,44s1.2-12.24,1.54-14.37a29.42,29.42,0,0,1,1.22-4.51l.42-2.28L57,21Z"/>
<path class="a" d="M55.06,49l1.47-.12.4-.15,1.16-1.91a40,40,0,0,1,1.47-4.29c.33-.8,3.65-7.92,4.24-8.87s2-3.16,2.55-4.05l1.85-2.9.16-.44-1.8,2.19c-.7.87-3.39,5.3-4.27,6.87s-4.83,9.1-5.38,9.9A20.69,20.69,0,0,1,55.51,47Z"/>
<path class="a" d="M77.62,64.45a13.61,13.61,0,0,0-2.78-.38,37,37,0,0,0-6.08,1.14,8,8,0,0,1-6.14-.64c-1.78-.87-1.91-3-2-4.92a15.84,15.84,0,0,1,.83-6.75c.95-2.34,5.19-12.95,6-15.12s2.84-6.46,3.32-7.55A7.27,7.27,0,0,0,71.28,28l-.78-1.71v1.87S67,37.44,66.15,39.6s-4.73,11.09-5.47,12.6a6.28,6.28,0,0,1-1.2,1.89l-1.18.29a78.56,78.56,0,0,0-1.22,8.81c0,2.61.87,3.09.87,3.09l3.06.43.69-1.36,2.9.52a14.88,14.88,0,0,0,5.91-.59s6.4-1.87,8.81,1.13l-.38-.88Z"/>
<path class="a" d="M31.34,93.26h4.15v1H32.61V95.7h2.51v1.14H32.61v1.43h2.93v1h-4.2Z"/>
<path class="a" d="M42.52,93.26h4.16v1H43.8V95.7h2.5v1.14H43.8v1.43h2.92v1h-4.2Z"/>
<path class="a" d="M78.39,93.26h4.16v1H79.67V95.7h2.5v1.14h-2.5v1.43h2.92v1h-4.2Z"/>
<path class="a" d="M49.72,93.26H50.9l2.7,3.81V93.26h1.27v6.06H53.78L51,95.49v3.83H49.72Z"/>
<path class="a" d="M70.23,93.26h1.18l2.71,3.81V93.26h1.26v6.06H74.29L71.5,95.49v3.83H70.23Z"/>
<path class="a" d="M65.92,93.26H67.2v6.06H65.92Z"/>
<path class="a" d="M60.58,95.83v1h1.31v1a1.89,1.89,0,0,1-1.36.61,2.13,2.13,0,0,1-2-2.22v0a2,2,0,0,1,1.92-2.13,1.46,1.46,0,0,1,1.4.71H63a2.69,2.69,0,0,0-2.55-1.78,3.2,3.2,0,0,0-3.09,3.22v0a3.24,3.24,0,0,0,3.08,3.27,3.38,3.38,0,0,0,2.58-1.21V95.83Z"/>
<path class="a" d="M28.15,95.13A1.77,1.77,0,0,1,27,97l1.34,2.37H27L25.75,97H24.8v2.35H23.52V93.26h2.41S28.15,93.14,28.15,95.13ZM26,95.88c.63,0,.9-.24.9-.74V95c0-.55-.3-.69-.93-.69H24.8v1.55Z"/>
<path class="a" d="M85.77,97.67h-.53v-.3h1.4v.3h-.52v1.65h-.35Z"/>
<path class="a" d="M87.19,97.37h.55l.39,1.38h0l.38-1.38h.54v1.95h-.33V97.74h0l-.44,1.58H88l-.45-1.58h0v1.58h-.34Z"/></svg>